<?xml version="1.0" encoding="UTF-8"?>
<svg version="1.1" xmlns="http://www.w3.org/2000/svg" width="943" height="144">
<path d="M0 0 C0.77915771 0.00202423 1.55831543 0.00404846 2.36108398 0.00613403 C3.15635498 0.00517731 3.95162598 0.00422058 4.77099609 0.00323486 C6.45564859 0.0025531 8.1403037 0.00440711 9.82495117 0.00857544 C12.41257595 0.01392378 15.00002714 0.00863034 17.58764648 0.00222778 C19.22045937 0.00288857 20.85327215 0.00416973 22.48608398 0.00613403 C23.2652417 0.0041098 24.04439941 0.00208557 24.84716797 0 C30.30863294 0.02399549 30.30863294 0.02399549 31.42358398 1.13894653 C31.55932708 4.19307065 31.63427516 7.22770406 31.66967773 10.28347778 C31.70262217 12.17606043 31.73583371 14.06863844 31.76928711 15.96121216 C31.81668645 18.95670303 31.86109355 21.9521759 31.90039062 24.94778442 C31.94011752 27.83072008 31.99166957 30.71326004 32.04467773 33.59597778 C32.05309189 34.49089432 32.06150604 35.38581085 32.07017517 36.30784607 C32.09513817 37.56385872 32.09513817 37.56385872 32.12060547 38.84524536 C32.13091293 39.5794722 32.1412204 40.31369904 32.15184021 41.07017517 C32.46861809 43.48178883 33.12445903 45.08695559 34.42358398 47.13894653 C36.82468616 48.21919312 36.82468616 48.21919312 39.42358398 48.13894653 C41.96202407 46.32577504 42.41847424 45.15427578 43.42358398 42.13894653 C43.56620491 39.14225298 43.65712626 36.16463916 43.70483398 33.16629028 C43.72324341 32.28743668 43.74165283 31.40858307 43.76062012 30.50309753 C43.83931734 26.74048041 43.90712933 22.9776851 43.97583008 19.21487427 C44.02750138 16.46942145 44.08476455 13.72412471 44.14233398 10.97879028 C44.15590942 10.12357285 44.16948486 9.26835541 44.18347168 8.38722229 C44.31075856 2.36459737 44.31075856 2.36459737 45.42358398 0.13894653 C57.30358398 0.13894653 69.18358398 0.13894653 81.42358398 0.13894653 C81.53698113 11.25779869 81.62852736 22.37626072 81.68264484 33.49556255 C81.7086312 38.65986978 81.7438269 43.82375757 81.80078125 48.98782349 C81.8554946 53.98049294 81.88508674 58.97276143 81.8979702 63.96570778 C81.90714 65.86133947 81.9250448 67.75695163 81.95223427 69.65241051 C82.15495182 84.38327734 80.79660325 96.268116 70.72045898 107.91629028 C59.83425224 118.45073184 47.9596651 120.67742103 33.29858398 120.51394653 C32.01918945 120.50597046 30.73979492 120.49799438 29.42163086 120.48977661 C6.44010635 120.14435415 6.44010635 120.14435415 -2.57641602 114.13894653 C-2.26621956 110.63873845 -1.95283618 107.13882246 -1.63891602 103.63894653 C-1.50839844 102.1655481 -1.50839844 102.1655481 -1.37524414 100.66238403 C-1.11944215 97.82013971 -0.85076014 94.97945555 -0.57641602 92.13894653 C-0.50406738 91.3358606 -0.43171875 90.53277466 -0.35717773 89.70535278 C0.19144113 84.37108939 0.19144113 84.37108939 2.42358398 82.13894653 C6.10125312 82.43316006 9.39330614 83.12975504 12.92358398 84.20144653 C21.73092262 86.47208853 32.3749072 86.62763166 40.42358398 82.13894653 C43.47836215 78.18819417 43.76022911 75.24823559 43.61108398 70.32644653 C43.57047852 68.58427856 43.57047852 68.58427856 43.52905273 66.80691528 C43.4768457 65.48627075 43.4768457 65.48627075 43.42358398 64.13894653 C42.80483398 65.02582153 42.18608398 65.91269653 41.54858398 66.82644653 C36.98400509 72.34579408 29.45166586 75.63902252 22.38061523 76.34207153 C15.08473117 76.50154441 9.30429263 75.0224868 3.17358398 71.01394653 C-5.73710329 61.69822802 -6.89403129 50.97409257 -6.80688477 38.57644653 C-6.80642654 37.50394653 -6.80596832 36.43144653 -6.80549622 35.32644653 C-6.80249283 33.07757449 -6.79466448 30.82870416 -6.78222656 28.5798645 C-6.76382381 25.12161999 -6.76171814 21.66364145 -6.76196289 18.20535278 C-6.75705252 16.01654837 -6.75122632 13.82774577 -6.74438477 11.63894653 C-6.74327194 10.60052612 -6.74215912 9.56210571 -6.74101257 8.49221802 C-6.73463272 7.54032593 -6.72825287 6.58843384 -6.72167969 5.60769653 C-6.71786789 4.76658325 -6.71405609 3.92546997 -6.71012878 3.05886841 C-6.42278438 -1.06698145 -3.45255898 0.01516916 0 0 Z " fill="#60A9F5" transform="translate(861.576416015625,23.861053466796875)"/>
<path d="M0 0 C1.11909256 -0.00953201 2.23818512 -0.01906403 3.39118958 -0.02888489 C4.6087645 -0.02797348 5.82633942 -0.02706207 7.08081055 -0.02612305 C8.3345195 -0.03040817 9.58822845 -0.0346933 10.87992859 -0.03910828 C13.54411686 -0.0448651 16.20791972 -0.04627385 18.87207031 -0.04101562 C21.58285235 -0.03641328 24.29318292 -0.04318162 27.00390625 -0.06152344 C30.9255113 -0.08624498 34.84663665 -0.09016942 38.76831055 -0.08862305 C39.96361893 -0.09783279 41.15892731 -0.10704254 42.39045715 -0.11653137 C55.44105924 -0.04607563 66.6219835 1.91250414 76.43237305 10.90356445 C81.19442863 15.92176973 83.52944114 21.30816572 83.7487793 28.2355957 C83.38660207 35.42481364 81.97234168 41.50185992 77.1472168 46.98950195 C75.6550293 48.2746582 75.6550293 48.2746582 73.6550293 48.2746582 C73.6550293 48.9346582 73.6550293 49.5946582 73.6550293 50.2746582 C74.3769043 50.4809082 75.0987793 50.6871582 75.8425293 50.8996582 C80.53054655 53.19157775 83.79420791 57.42825227 85.6550293 62.2746582 C86.41831348 70.47552542 87.16012492 79.55946416 81.6550293 86.2746582 C73.97574449 93.95394301 65.33484513 95.38510274 54.84936523 95.41992188 C53.5382074 95.42630173 52.22704956 95.43268158 50.87615967 95.43925476 C49.46390826 95.44078279 48.05165635 95.4418971 46.6394043 95.44262695 C45.17685921 95.44584386 43.71431444 95.44920826 42.25177002 95.45271301 C39.1990077 95.45867699 36.14627359 95.46055546 33.09350586 95.45996094 C29.18050733 95.45985885 25.26768834 95.47357145 21.35473251 95.49073315 C18.34018112 95.50183746 15.32567358 95.50388072 12.31110382 95.50335121 C10.86779404 95.50453137 9.42448312 95.50895516 7.98119354 95.51668358 C5.9685245 95.52646199 3.95580238 95.52234675 1.94311523 95.51757812 C0.79840759 95.51900314 -0.34630005 95.52042816 -1.5256958 95.52189636 C-4.3449707 95.2746582 -4.3449707 95.2746582 -7.3449707 93.2746582 C-7.641712 90.35518359 -7.74385401 87.64761623 -7.71728516 84.72583008 C-7.72093582 83.84117569 -7.72458649 82.9565213 -7.72834778 82.0450592 C-7.73647607 79.11098229 -7.7228243 76.17745371 -7.70825195 73.2434082 C-7.70773362 71.21081543 -7.70825028 69.17822216 -7.70976257 67.14562988 C-7.70967275 62.88176 -7.69922223 58.6180788 -7.68115234 54.35424805 C-7.65846486 48.87944362 -7.65791998 43.40491509 -7.66466999 37.9300766 C-7.66800609 33.7317254 -7.66138666 29.53343748 -7.65154076 25.33509827 C-7.64768226 23.3160078 -7.64654322 21.2969103 -7.6481266 19.27781677 C-7.64849607 16.45956935 -7.63591051 13.64168013 -7.61962891 10.82348633 C-7.62210632 9.98290176 -7.62458374 9.1423172 -7.62713623 8.27626038 C-7.56552651 1.61903919 -6.66337842 0.03111424 0 0 Z M32.6550293 29.2746582 C31.9950293 30.5946582 31.3350293 31.9146582 30.6550293 33.2746582 C32.43469612 35.47132123 32.43469612 35.47132123 34.7487793 35.50512695 C35.5428418 35.49094727 36.3369043 35.47676758 37.1550293 35.4621582 C37.9490918 35.45571289 38.7431543 35.44926758 39.5612793 35.44262695 C41.71339321 35.40141657 41.71339321 35.40141657 43.6550293 34.2746582 C43.3250293 32.6246582 42.9950293 30.9746582 42.6550293 29.2746582 C39.3550293 29.2746582 36.0550293 29.2746582 32.6550293 29.2746582 Z M32.6550293 65.2746582 C31.9950293 66.5946582 31.3350293 67.9146582 30.6550293 69.2746582 C32.43469612 71.47132123 32.43469612 71.47132123 34.7487793 71.50512695 C35.5428418 71.49094727 36.3369043 71.47676758 37.1550293 71.4621582 C37.9490918 71.45571289 38.7431543 71.44926758 39.5612793 71.44262695 C41.71339321 71.40141657 41.71339321 71.40141657 43.6550293 70.2746582 C43.3250293 68.6246582 42.9950293 66.9746582 42.6550293 65.2746582 C39.3550293 65.2746582 36.0550293 65.2746582 32.6550293 65.2746582 Z " fill="#60A8F5" transform="translate(474.344970703125,2.725341796875)"/>
<path d="M0 0 C1.15605492 -0.0049926 1.15605492 -0.0049926 2.33546448 -0.01008606 C3.96883546 -0.01515835 5.60221685 -0.01749429 7.2355957 -0.01733398 C9.73991924 -0.01951905 12.24380146 -0.0376672 14.74804688 -0.05664062 C16.33202974 -0.05957472 17.9160147 -0.06155941 19.5 -0.0625 C20.25212265 -0.06968552 21.0042453 -0.07687103 21.77915955 -0.08427429 C27.08758346 -0.06085404 27.08758346 -0.06085404 29.31640625 2.16796875 C29.51526749 5.14003869 29.58905266 8.01895906 29.57519531 10.9921875 C29.57869995 11.9061026 29.58220459 12.8200177 29.58581543 13.7616272 C29.59464274 16.7929842 29.58878006 19.82410923 29.58203125 22.85546875 C29.58337761 24.95532272 29.5853179 27.05517639 29.58782959 29.1550293 C29.59078221 33.56008873 29.58647876 37.96506716 29.57714844 42.37011719 C29.56575386 48.02650906 29.57231259 53.68271116 29.58429337 59.33909607 C29.59150823 63.67640624 29.58922575 68.01367116 29.58403778 72.35098267 C29.58270025 74.43706281 29.5843526 76.52314701 29.58899689 78.60922241 C29.59405598 81.52084289 29.58636057 84.43215275 29.57519531 87.34375 C29.57924377 88.21238678 29.58329224 89.08102356 29.58746338 89.97598267 C29.54493397 95.93944103 29.54493397 95.93944103 27.31640625 98.16796875 C24.83074082 98.36745432 22.45889875 98.44786618 19.97265625 98.43359375 C19.24776001 98.4355072 18.52286377 98.43742065 17.77600098 98.43939209 C16.24275363 98.44075362 14.70949475 98.43705939 13.17626953 98.42871094 C10.82558366 98.41801053 8.47566202 98.42860683 6.125 98.44140625 C4.63671706 98.44008465 3.14843459 98.43752224 1.66015625 98.43359375 C0.95491821 98.43764221 0.24968018 98.44169067 -0.47692871 98.44586182 C-5.45366889 98.39789361 -5.45366889 98.39789361 -7.68359375 96.16796875 C-8.09765625 94.00390625 -8.09765625 94.00390625 -8.30859375 91.54296875 C-8.38335938 90.72570312 -8.458125 89.9084375 -8.53515625 89.06640625 C-8.58414063 88.43992187 -8.633125 87.8134375 -8.68359375 87.16796875 C-9.32296875 88.05484375 -9.96234375 88.94171875 -10.62109375 89.85546875 C-15.81464872 96.07890714 -23.83843642 99.45514469 -31.765625 100.421875 C-38.79381682 100.80344058 -45.17900892 98.99885669 -50.6953125 94.54296875 C-60.94322063 83.87269564 -62.17309968 70.03985786 -61.96484375 56.01953125 C-61.56846256 45.86028127 -58.15419049 35.7894785 -50.984375 28.421875 C-45.01029882 23.01799265 -39.89104752 21.69204527 -31.87890625 21.859375 C-22.35561292 22.77910626 -16.52968545 26.84611769 -9.68359375 33.16796875 C-9.64600952 31.72176147 -9.64600952 31.72176147 -9.60766602 30.24633789 C-9.51374069 26.68109033 -9.41348436 23.11604442 -9.3112793 19.55102539 C-9.2678739 18.00582586 -9.22620304 16.46057661 -9.1862793 14.9152832 C-9.12871176 12.69857779 -9.06497951 10.48212395 -9 8.265625 C-8.97493126 7.22342552 -8.97493126 7.22342552 -8.94935608 6.16017151 C-8.72688947 -0.98487637 -6.42827728 0.0094856 0 0 Z M-19.93359375 51.16796875 C-22.15310207 54.97284015 -22.58753293 57.85687418 -21.68359375 62.16796875 C-19.84702386 65.13528273 -19.84702386 65.13528273 -17.68359375 67.16796875 C-14.77320833 67.14271691 -14.77320833 67.14271691 -11.68359375 66.16796875 C-9.18033591 62.77645813 -8.67340332 60.75901378 -8.74609375 56.54296875 C-9.76950044 52.85870465 -10.59037091 51.37741364 -13.68359375 49.16796875 C-17.68705398 48.72505952 -17.68705398 48.72505952 -19.93359375 51.16796875 Z " fill="#60A8F5" transform="translate(818.68359375,-0.16796875)"/>
<path d="M0 0 C5.10863896 -0.0246501 10.21724359 -0.04283607 15.32592773 -0.05493164 C17.06519168 -0.05997204 18.80445136 -0.0668043 20.54370117 -0.07543945 C23.03825937 -0.08751792 25.53276173 -0.09323108 28.02734375 -0.09765625 C28.80963852 -0.10281754 29.59193329 -0.10797882 30.39793396 -0.11329651 C32.26567114 -0.11349226 34.13329204 -0.06199694 36 0 C37.89977088 1.89977088 37.12012643 4.68939065 37.12442017 7.21670532 C37.11902725 8.55781876 37.11902725 8.55781876 37.11352539 9.92602539 C37.11367142 10.86251419 37.11381744 11.79900299 37.1139679 12.76387024 C37.11326837 15.87515539 37.10547415 18.98638149 37.09765625 22.09765625 C37.09579221 24.24857043 37.09436824 26.39948503 37.09336853 28.55039978 C37.08954225 34.22381758 37.07971102 39.89720995 37.06866455 45.57061768 C37.0584528 51.35501766 37.05387142 57.13942173 37.04882812 62.92382812 C37.03808885 74.28256328 37.02101111 85.64127953 37 97 C34.01099603 98.49450198 30.93542181 98.18336418 27.65625 98.203125 C26.56890564 98.21167511 26.56890564 98.21167511 25.45959473 98.22039795 C23.92636576 98.22984603 22.39311651 98.23638117 20.85986328 98.24023438 C18.50908323 98.24996241 16.15916935 98.2809949 13.80859375 98.3125 C12.3203177 98.31902788 10.83203539 98.32427919 9.34375 98.328125 C8.63851196 98.3404718 7.93327393 98.3528186 7.20666504 98.36553955 C5.22460938 98.35644531 5.22460938 98.35644531 2 98 C-0.29633824 94.55549263 -0.54016485 92.06187717 -1 88 C-1.56847656 88.54269531 -2.13695312 89.08539063 -2.72265625 89.64453125 C-10.69827655 97.0342963 -17.67008166 100.37920559 -28.6640625 100.21484375 C-35.31580562 99.60306136 -40.30131414 96.69868586 -45 92 C-54.39678639 79.80019494 -55.44621531 64.23880882 -53.5390625 49.41796875 C-51.55474383 39.57808264 -47.6166633 31.59743927 -39.80859375 25.15625 C-33.56602226 21.16531877 -27.18774526 21.33819129 -20 22 C-14.281935 23.33741857 -10.05165841 25.72890279 -5.70703125 29.65234375 C-5.00682861 30.28003662 -4.30662598 30.90772949 -3.58520508 31.55444336 C-3.0620874 32.03147705 -2.53896973 32.50851074 -2 33 C-1.96241577 31.6070874 -1.96241577 31.6070874 -1.92407227 30.18603516 C-1.82902068 26.74564196 -1.72978293 23.30542287 -1.62768555 19.86523438 C-1.58433411 18.37537359 -1.54265916 16.88546305 -1.50268555 15.39550781 C-1.44498785 13.25570673 -1.38129245 11.11615615 -1.31640625 8.9765625 C-1.27974854 7.68830566 -1.24309082 6.40004883 -1.20532227 5.07275391 C-1 2 -1 2 0 0 Z M-10 49 C-12.85807336 51.85807336 -14.31732129 53.98106842 -14.5 58 C-14.31732129 62.01893158 -12.85807336 64.14192664 -10 67 C-7.0957107 66.89207179 -7.0957107 66.89207179 -4 66 C-1.69563172 63.31157034 -1.0633102 61.50648158 -0.625 58 C-1.0633102 54.49351842 -1.69563172 52.68842966 -4 50 C-7.0957107 49.10792821 -7.0957107 49.10792821 -10 49 Z " fill="#60A9F5" transform="translate(714,0)"/>
<path d="M0 0 C3.74737203 1.93829588 6.48148635 4.34526582 9.4921875 7.2890625 C9.8015625 6.1546875 10.1109375 5.0203125 10.4296875 3.8515625 C11.4921875 0.2890625 11.4921875 0.2890625 12.4921875 -0.7109375 C15.06235574 -0.83663672 17.60422517 -0.89957089 20.17578125 -0.9140625 C21.33183617 -0.92261261 21.33183617 -0.92261261 22.51124573 -0.93133545 C24.14460878 -0.94079817 25.77799103 -0.94732446 27.41137695 -0.95117188 C29.91586429 -0.9608839 32.4195334 -0.99189664 34.92382812 -1.0234375 C36.50780761 -1.02996661 38.09179298 -1.03521744 39.67578125 -1.0390625 C40.80396523 -1.0575827 40.80396523 -1.0575827 41.9549408 -1.07647705 C44.06811523 -1.06738281 44.06811523 -1.06738281 47.4921875 -0.7109375 C49.89694449 2.89619799 49.74525166 4.53445598 49.75097656 8.82421875 C49.7544812 9.48308075 49.75798584 10.14194275 49.76159668 10.82077026 C49.77039637 12.99780831 49.76457124 15.17452117 49.7578125 17.3515625 C49.75915966 18.86466535 49.76110062 20.37776777 49.76361084 21.89086914 C49.76655971 25.06172813 49.76227214 28.23247442 49.75292969 31.40332031 C49.74153522 35.46890737 49.74809597 39.53423037 49.76007462 43.59980774 C49.76729965 46.72418204 49.76500234 49.84849369 49.75981903 52.97286987 C49.75848431 54.47199535 49.76012404 55.97112651 49.76477814 57.47024536 C49.76985401 59.56495243 49.76211862 61.65923111 49.75097656 63.75390625 C49.74938538 64.9462085 49.74779419 66.13851074 49.74615479 67.36694336 C49.4921875 70.2890625 49.4921875 70.2890625 47.4921875 73.2890625 C44.96131654 73.56882261 42.67816841 73.66147621 40.1484375 73.6171875 C39.42354126 73.61531433 38.69864502 73.61344116 37.95178223 73.61151123 C36.41849166 73.60478591 34.88521839 73.59086176 33.35205078 73.5703125 C31.00146593 73.53918537 28.65155166 73.5293452 26.30078125 73.5234375 C24.8124918 73.51426635 23.32420919 73.50389022 21.8359375 73.4921875 C21.13069946 73.48793762 20.42546143 73.48368774 19.69885254 73.47930908 C14.72660935 73.40627342 14.72660935 73.40627342 12.4921875 72.2890625 C11.859375 70.22265625 11.859375 70.22265625 11.3671875 67.7265625 C11.19960937 66.90027344 11.03203125 66.07398437 10.859375 65.22265625 C10.73820312 64.58457031 10.61703125 63.94648437 10.4921875 63.2890625 C9.8321875 64.0109375 9.1721875 64.7328125 8.4921875 65.4765625 C2.24302438 71.69041961 -5.08300241 75.23735798 -13.9453125 75.6015625 C-21.5967723 75.36812813 -27.1127175 72.5628101 -32.68359375 67.375 C-42.38401852 56.28286547 -42.27611847 41.77627453 -41.703125 27.89550781 C-41.02587213 18.85756832 -37.67008087 10.02685024 -31.5078125 3.2890625 C-21.92136103 -4.27823126 -11.16568467 -4.49863817 0 0 Z M0.3046875 25.8515625 C-2.10355538 29.09023396 -2.43849415 31.26859804 -2.5078125 35.2890625 C-1.63223136 38.70826319 -1.63223136 38.70826319 0.4921875 41.2890625 C3.38291703 42.61814417 3.38291703 42.61814417 6.4921875 42.2890625 C9.09131001 41.1103962 9.09131001 41.1103962 10.4921875 38.2890625 C11.25613668 33.58843641 11.42895589 29.69421509 8.7421875 25.6640625 C5.50169635 23.68376235 3.41035804 23.6332264 0.3046875 25.8515625 Z " fill="#60A8F5" transform="translate(198.5078125,24.7109375)"/>
<path d="M0 0 C0.77915771 0.00202423 1.55831543 0.00404846 2.36108398 0.00613403 C3.15635498 0.00517731 3.95162598 0.00422058 4.77099609 0.00323486 C6.45564859 0.0025531 8.1403037 0.00440711 9.82495117 0.00857544 C12.41257595 0.01392378 15.00002714 0.00863034 17.58764648 0.00222778 C19.22045937 0.00288857 20.85327215 0.00416973 22.48608398 0.00613403 C23.2652417 0.0041098 24.04439941 0.00208557 24.84716797 0 C30.30863294 0.02399549 30.30863294 0.02399549 31.42358398 1.13894653 C31.55932708 4.19307065 31.63427516 7.22770406 31.66967773 10.28347778 C31.70262217 12.17606043 31.73583371 14.06863844 31.76928711 15.96121216 C31.81668645 18.95670303 31.86109355 21.9521759 31.90039062 24.94778442 C31.94011752 27.83072008 31.99166957 30.71326004 32.04467773 33.59597778 C32.05309189 34.49089432 32.06150604 35.38581085 32.07017517 36.30784607 C32.09513817 37.56385872 32.09513817 37.56385872 32.12060547 38.84524536 C32.13091293 39.5794722 32.1412204 40.31369904 32.15184021 41.07017517 C32.46861809 43.48178883 33.12445903 45.08695559 34.42358398 47.13894653 C36.82468616 48.21919312 36.82468616 48.21919312 39.42358398 48.13894653 C41.96202407 46.32577504 42.41847424 45.15427578 43.42358398 42.13894653 C43.56620491 39.14225298 43.65712626 36.16463916 43.70483398 33.16629028 C43.72324341 32.28743668 43.74165283 31.40858307 43.76062012 30.50309753 C43.83931734 26.74048041 43.90712933 22.9776851 43.97583008 19.21487427 C44.02750138 16.46942145 44.08476455 13.72412471 44.14233398 10.97879028 C44.15590942 10.12357285 44.16948486 9.26835541 44.18347168 8.38722229 C44.31075856 2.36459737 44.31075856 2.36459737 45.42358398 0.13894653 C50.53222294 0.11429643 55.64082758 0.09611046 60.74951172 0.08401489 C62.48877566 0.07897449 64.22803535 0.07214223 65.96728516 0.06350708 C68.46184335 0.05142862 70.95634572 0.04571545 73.45092773 0.04129028 C74.2332225 0.036129 75.01551727 0.03096771 75.82151794 0.02565002 C77.68925513 0.02545427 79.55687603 0.07694959 81.42358398 0.13894653 C83.31480512 2.03016767 82.55141016 5.33486225 82.55297852 7.84597778 C82.55560699 8.897173 82.55560699 8.897173 82.55828857 9.96960449 C82.56270664 12.29691002 82.55976927 14.62414017 82.55639648 16.95144653 C82.55706954 18.56187963 82.55803957 20.17231262 82.55929565 21.78274536 C82.56077257 25.16223109 82.55861829 28.54169043 82.55395508 31.9211731 C82.54825779 36.26271159 82.55153683 40.60418827 82.55752754 44.94572449 C82.56113334 48.27245554 82.55999448 51.59917183 82.55739975 54.92590332 C82.55673053 56.52716072 82.55755872 58.12841944 82.5598793 59.72967529 C82.56240614 61.96379164 82.55856483 64.19780653 82.55297852 66.43191528 C82.55218292 67.70575073 82.55138733 68.97958618 82.55056763 70.29202271 C82.42358398 73.13894653 82.42358398 73.13894653 81.42358398 74.13894653 C78.92604257 74.25222019 76.45718409 74.30311844 73.95874023 74.30691528 C72.83597939 74.31190788 72.83597939 74.31190788 71.6905365 74.31700134 C70.10424414 74.32207346 68.51794108 74.32440958 66.93164062 74.32424927 C64.49974029 74.32643426 62.06829449 74.34458234 59.63647461 74.36355591 C58.09806471 74.36649003 56.55965264 74.3684747 55.02124023 74.36941528 C54.29099136 74.3766008 53.56074249 74.38378632 52.80836487 74.39118958 C47.65240706 74.36776961 47.65240706 74.36776961 45.42358398 72.13894653 C45.00952148 69.97488403 45.00952148 69.97488403 44.79858398 67.51394653 C44.72381836 66.69668091 44.64905273 65.87941528 44.57202148 65.03738403 C44.52303711 64.41089966 44.47405273 63.78441528 44.42358398 63.13894653 C43.63983398 64.19082153 42.85608398 65.24269653 42.04858398 66.32644653 C37.16715647 72.05631264 29.87211537 75.59721875 22.38061523 76.34207153 C15.08473117 76.50154441 9.30429263 75.0224868 3.17358398 71.01394653 C-5.73710329 61.69822802 -6.89403129 50.97409257 -6.80688477 38.57644653 C-6.80642654 37.50394653 -6.80596832 36.43144653 -6.80549622 35.32644653 C-6.80249283 33.07757449 -6.79466448 30.82870416 -6.78222656 28.5798645 C-6.76382381 25.12161999 -6.76171814 21.66364145 -6.76196289 18.20535278 C-6.75705252 16.01654837 -6.75122632 13.82774577 -6.74438477 11.63894653 C-6.74327194 10.60052612 -6.74215912 9.56210571 -6.74101257 8.49221802 C-6.73463272 7.54032593 -6.72825287 6.58843384 -6.72167969 5.60769653 C-6.71786789 4.76658325 -6.71405609 3.92546997 -6.71012878 3.05886841 C-6.42278438 -1.06698145 -3.45255898 0.01516916 0 0 Z " fill="#60A8F5" transform="translate(571.576416015625,23.861053466796875)"/>
<path d="M0 0 C0.72262024 0.00045319 1.44524048 0.00090637 2.1897583 0.00137329 C2.94747025 -0.00198532 3.70518219 -0.00534393 4.4858551 -0.00880432 C7.00313941 -0.01834226 9.52035741 -0.02025885 12.03765869 -0.02133179 C13.78021777 -0.0245424 15.52277658 -0.02790631 17.26533508 -0.03141785 C20.92309189 -0.03741624 24.58082504 -0.03925702 28.23858643 -0.03866577 C32.93430423 -0.03856411 37.62987097 -0.0522174 42.32555294 -0.06943798 C45.92597658 -0.08053599 49.52636345 -0.08258566 53.12680244 -0.08205605 C54.85841963 -0.08323945 56.59003767 -0.08768126 58.32163811 -0.09538841 C60.74002653 -0.10514414 63.15808373 -0.10232794 65.57647705 -0.09628296 C66.29707306 -0.10190247 67.01766907 -0.10752197 67.76010132 -0.11331177 C72.71949924 -0.08167874 72.71949924 -0.08167874 74.94781494 2.14663696 C75.19073486 4.74453735 75.19073486 4.74453735 75.17828369 7.99429321 C75.1763501 9.15638306 75.1744165 10.3184729 75.17242432 11.51577759 C75.16017822 12.73458618 75.14793213 13.95339478 75.13531494 15.20913696 C75.13434814 17.04315063 75.13434814 17.04315063 75.13336182 18.91421509 C75.0879255 28.0065264 75.0879255 28.0065264 73.94781494 29.14663696 C72.45909635 29.23333128 70.96636995 29.2536719 69.47515869 29.24429321 C68.5760376 29.24107056 67.6769165 29.2378479 66.75054932 29.23452759 C65.80502197 29.22614868 64.85949463 29.21776978 63.88531494 29.20913696 C62.46122314 29.20236938 62.46122314 29.20236938 61.00836182 29.19546509 C58.65478429 29.18363807 56.30133017 29.16715722 53.94781494 29.14663696 C53.95447678 29.92924393 53.96113861 30.71185089 53.96800232 31.51817322 C54.02808926 38.89000818 54.07377685 46.26172457 54.10325146 53.63374043 C54.11891405 57.42387136 54.14016272 61.21380012 54.1741333 65.0038147 C54.20670624 68.66074297 54.22466349 72.31747667 54.23244667 75.9745388 C54.23799395 77.37042492 54.24882644 78.76630027 54.26500511 80.16210365 C54.28674923 82.11558286 54.28804009 84.06925747 54.28839111 86.02285767 C54.29505295 87.13538406 54.30171478 88.24791046 54.30857849 89.39414978 C53.94781494 92.14663696 53.94781494 92.14663696 52.63417053 94.00511169 C49.8510483 95.88905857 46.78675267 95.57335098 43.54156494 95.54507446 C42.82045532 95.54794464 42.0993457 95.55081482 41.35638428 95.55377197 C39.83330499 95.55581148 38.31019945 95.55028943 36.78717041 95.53775024 C34.45600816 95.5216934 32.12657952 95.53760106 29.79547119 95.55679321 C28.31499862 95.55481076 26.83452712 95.55096703 25.35406494 95.54507446 C24.65712524 95.55114716 23.96018555 95.55721985 23.24212646 95.56347656 C18.46096995 95.49400108 18.46096995 95.49400108 16.26145935 94.00511169 C14.36248829 91.31854773 14.587659 89.29267989 14.60723877 86.02285767 C14.60746536 84.76177689 14.60769196 83.50069611 14.60792542 82.20140076 C14.62324532 80.82506964 14.6388933 79.44874214 14.65484619 78.07241821 C14.66044234 76.66423494 14.66471235 75.25604582 14.66770935 73.84785461 C14.67915676 70.14381753 14.7086226 66.44013406 14.74182129 62.73623657 C14.77252468 58.95576766 14.78621523 55.17524153 14.80133057 51.39468384 C14.83349278 43.9785071 14.88468739 36.56262161 14.94781494 29.14663696 C14.34719238 29.15187378 13.74656982 29.1571106 13.12774658 29.1625061 C10.42194656 29.1832171 7.71616317 29.19627821 5.01031494 29.20913696 C4.0647876 29.21751587 3.11926025 29.22589478 2.14508057 29.23452759 C0.79639893 29.23936157 0.79639893 29.23936157 -0.57952881 29.24429321 C-1.82850952 29.25214844 -1.82850952 29.25214844 -3.10272217 29.26016235 C-5.05218506 29.14663696 -5.05218506 29.14663696 -6.05218506 28.14663696 C-6.15201564 26.15906669 -6.18299259 24.16796177 -6.18499756 22.17788696 C-6.18628662 20.96745728 -6.18757568 19.75702759 -6.18890381 18.50991821 C-6.18503662 17.2350354 -6.18116943 15.96015259 -6.17718506 14.64663696 C-6.18105225 13.37175415 -6.18491943 12.09687134 -6.18890381 10.78335571 C-6.18761475 9.57292603 -6.18632568 8.36249634 -6.18499756 7.11538696 C-6.18386963 5.99583618 -6.1827417 4.8762854 -6.18157959 3.72280884 C-5.95460696 -0.79608767 -4.03767955 0.02629955 0 0 Z " fill="#5FA8F5" transform="translate(6.05218505859375,2.853363037109375)"/>
<path d="M0 0 C7.88253711 5.72204106 13.38319191 12.83621208 15.4140625 22.45703125 C15.66096208 24.903166 15.61975219 26.98875499 15.4140625 29.45703125 C14.4140625 30.45703125 14.4140625 30.45703125 12.66136169 30.57728577 C11.89969193 30.57506516 11.13802216 30.57284454 10.35327148 30.57055664 C9.49245468 30.57048111 8.63163788 30.57040558 7.74473572 30.57032776 C6.80932449 30.56516647 5.87391327 30.56000519 4.91015625 30.5546875 C3.95714127 30.55327255 3.00412628 30.5518576 2.02223206 30.55039978 C-1.03468915 30.54478277 -4.09153827 30.53222741 -7.1484375 30.51953125 C-9.21549374 30.51451844 -11.28255112 30.50995516 -13.34960938 30.50585938 C-18.42841338 30.49480781 -23.5071632 30.4775318 -28.5859375 30.45703125 C-26.90947048 35.66553339 -26.90947048 35.66553339 -22.7734375 38.70703125 C-19.38372009 38.80402849 -19.38372009 38.80402849 -17.28125 35.96484375 C-12.33635841 31.64026807 -5.43640985 32.90213573 0.7265625 33.08203125 C2.02658203 33.09621094 3.32660156 33.11039063 4.66601562 33.125 C14.23204743 33.27501618 14.23204743 33.27501618 15.4140625 34.45703125 C16.288997 42.50642867 13.30231501 50.18052841 8.6640625 56.70703125 C1.9033726 64.95507292 -5.13863988 69.51425796 -15.4609375 72.20703125 C-29.93571175 73.36501319 -43.01382247 71.95454013 -54.5859375 62.45703125 C-62.95188967 53.89935935 -65.88872349 43.45625635 -65.90063477 31.80834961 C-65.69706398 21.11305352 -62.24285576 12.05365882 -54.5859375 4.45703125 C-39.76052316 -7.70194166 -16.64160659 -9.92965952 0 0 Z M-25.5859375 16.45703125 C-26.2459375 17.77703125 -26.9059375 19.09703125 -27.5859375 20.45703125 C-25.82457395 22.64034814 -25.82457395 22.64034814 -23.640625 22.65234375 C-20.61328125 22.5546875 -20.61328125 22.5546875 -17.5859375 22.45703125 C-16.9259375 21.13703125 -16.2659375 19.81703125 -15.5859375 18.45703125 C-17.34730105 16.27371436 -17.34730105 16.27371436 -19.53125 16.26171875 C-22.55859375 16.359375 -22.55859375 16.359375 -25.5859375 16.45703125 Z " fill="#60A9F5" transform="translate(399.5859375,27.54296875)"/>
<path d="M0 0 C1.39120471 0.00015906 2.78241534 0.00585033 4.17358398 0.01586914 C4.90463852 0.01728409 5.63569305 0.01869904 6.38890076 0.02015686 C8.73253406 0.02577131 11.07607313 0.03832617 13.41967773 0.05102539 C15.00496282 0.05603853 16.59024939 0.06060176 18.17553711 0.06469727 C22.06945383 0.07574542 25.96329979 0.09301967 29.85717773 0.11352539 C31.59229133 4.80284727 32.48102808 9.42191516 33.14624023 14.35571289 C33.25439056 15.12408478 33.36254089 15.89245667 33.47396851 16.68411255 C33.81534266 19.11821157 34.14887678 21.55330916 34.48217773 23.98852539 C34.71342989 25.64745194 34.94519548 27.30630701 35.17749023 28.96508789 C35.74332872 33.0137643 36.30214256 37.06335441 36.85717773 41.11352539 C36.99816895 40.01363281 37.13916016 38.91374023 37.28442383 37.78051758 C37.81015356 33.69442333 38.34541549 29.60962464 38.88354492 25.52514648 C39.11498443 23.75823228 39.34384822 21.99097869 39.57006836 20.22338867 C39.89595452 17.68061903 40.23112825 15.13921967 40.56811523 12.59790039 C40.71668472 11.41487335 40.71668472 11.41487335 40.86825562 10.20794678 C41.3677299 6.50776075 41.85600207 3.31243073 43.85717773 0.11352539 C48.37783202 0.06414839 52.8983299 0.02781716 57.41918945 0.00366211 C58.95762872 -0.00640579 60.49604881 -0.02006107 62.03442383 -0.03735352 C64.24361906 -0.06156778 66.45256168 -0.07294952 68.66186523 -0.08178711 C69.3515036 -0.09210968 70.04114197 -0.10243225 70.75167847 -0.11306763 C72.4551868 -0.11346939 74.15803716 -0.00838486 75.85717773 0.11352539 C76.84717773 1.10352539 76.84717773 1.10352539 77.85717773 2.11352539 C77.71166992 4.44906616 77.71166992 4.44906616 77.15405273 7.37670898 C76.85144531 9.00101837 76.85144531 9.00101837 76.54272461 10.65814209 C76.20337891 12.36855682 76.20337891 12.36855682 75.85717773 14.11352539 C75.64641602 15.20336731 75.4356543 16.29320923 75.21850586 17.41607666 C74.53146815 20.91516532 73.82271426 24.40921877 73.10717773 27.90258789 C72.84839844 29.16823578 72.58961914 30.43388367 72.32299805 31.73788452 C71.78018736 34.38869602 71.23524755 37.03906067 70.68920898 39.68920898 C69.98984512 43.08617787 69.29976989 46.48496757 68.6116333 49.88422585 C67.95006656 53.14170651 67.277902 56.39698062 66.60717773 59.65258789 C66.36128906 60.87329987 66.11540039 62.09401184 65.86206055 63.35171509 C65.51159668 65.03519547 65.51159668 65.03519547 65.15405273 66.75268555 C64.95134766 67.74241364 64.74864258 68.73214172 64.53979492 69.75186157 C63.85717773 72.11352539 63.85717773 72.11352539 61.85717773 74.11352539 C59.73866272 74.38768005 59.73866272 74.38768005 57.08789062 74.41992188 C56.09668716 74.43590927 55.1054837 74.45189667 54.08424377 74.46836853 C52.47331093 74.47641258 52.47331093 74.47641258 50.82983398 74.48461914 C49.18004799 74.49816185 49.18004799 74.49816185 47.49693298 74.51197815 C45.16757948 74.52650518 42.83818494 74.53537345 40.50878906 74.5390625 C36.93737391 74.55096641 33.36768143 74.60013705 29.79663086 74.65063477 C27.5368737 74.66009744 25.27710589 74.66733322 23.01733398 74.67211914 C21.94540298 74.69165146 20.87347198 74.71118378 19.76905823 74.73130798 C18.77470261 74.72523026 17.78034698 74.71915253 16.75585938 74.71289062 C15.88030899 74.71796127 15.00475861 74.72303192 14.10267639 74.72825623 C11.85717773 74.11352539 11.85717773 74.11352539 10.1468811 71.96803284 C8.76676995 68.91342536 7.99696047 66.12530779 7.32324219 62.84204102 C7.06319901 61.59724976 6.80315582 60.3524585 6.53523254 59.06994629 C6.26329453 57.71995914 5.99171192 56.36990036 5.72045898 55.01977539 C5.4339665 53.62628356 5.14678002 52.23293424 4.8589325 50.83972168 C4.25896953 47.92580598 3.6653722 45.01069158 3.07666016 42.09448242 C2.32323041 38.36346818 1.55716375 34.6351931 0.78670979 30.90766144 C0.19339739 28.03281255 -0.39478416 25.15693367 -0.98127174 22.28068542 C-1.261949 20.90577099 -1.54383584 19.53110288 -1.82697105 18.1566925 C-2.22196027 16.23380967 -2.60966763 14.30943541 -2.99707031 12.38500977 C-3.2189653 11.29200562 -3.44086029 10.19900146 -3.66947937 9.07287598 C-4.10627731 6.34200526 -4.31321727 3.87133037 -4.14282227 1.11352539 C-3.14282227 0.11352539 -3.14282227 0.11352539 0 0 Z " fill="#60A9F5" transform="translate(256.142822265625,23.886474609375)"/>
<path d="M0 0 C2.67224479 2.67224479 1.22997917 10.3589475 1.24023438 14.21020508 C1.24994529 16.42502315 1.2809579 18.63891541 1.3125 20.85351562 C1.3190293 22.2552028 1.32428006 23.65689664 1.328125 25.05859375 C1.3374707 26.34048584 1.34681641 27.62237793 1.35644531 28.94311523 C1.18000488 30.45627319 1.18000488 30.45627319 1 32 C-2.46404822 34.30936548 -4.58310098 34.47159525 -8.6875 34.9375 C-17.02446533 36.05482525 -23.41508095 37.19992267 -29 44 C-29.74160214 47.33582117 -29.74160214 47.33582117 -29.63671875 50.98046875 C-29.64709671 51.63453201 -29.65747467 52.28859528 -29.66816711 52.96247864 C-29.69772373 55.0380289 -29.69448896 57.11177831 -29.6875 59.1875 C-29.69639265 61.27342783 -29.71231015 63.3588792 -29.7389679 65.44465637 C-29.76069441 67.32912223 -29.76112312 69.21379768 -29.76049805 71.09838867 C-30 74 -30 74 -32 76 C-34.64116113 76.18737649 -37.1755398 76.25569866 -39.81640625 76.23046875 C-40.58806625 76.23001053 -41.35972626 76.22955231 -42.1547699 76.2290802 C-43.78638242 76.22605787 -45.41799205 76.21817213 -47.04956055 76.20581055 C-49.55593 76.18754787 -52.06193033 76.18530088 -54.56835938 76.18554688 C-56.15104488 76.18063198 -57.73372787 76.17480379 -59.31640625 76.16796875 C-60.44762657 76.16629951 -60.44762657 76.16629951 -61.60169983 76.16459656 C-66.88394881 76.11605119 -66.88394881 76.11605119 -68 75 C-68.0996392 72.76612794 -68.12799795 70.52906141 -68.12939453 68.29296875 C-68.13114685 67.59217194 -68.13289917 66.89137512 -68.13470459 66.16934204 C-68.13912266 63.84203651 -68.13618529 61.51480636 -68.1328125 59.1875 C-68.13348555 57.57706691 -68.13445559 55.96663391 -68.13571167 54.35620117 C-68.13718858 50.97671545 -68.13503431 47.5972561 -68.13037109 44.21777344 C-68.1246738 39.87623495 -68.12795285 35.53475827 -68.13394356 31.19322205 C-68.13754936 27.86649099 -68.1364105 24.5397747 -68.13381577 21.21304321 C-68.13314655 19.61178582 -68.13397474 18.0105271 -68.13629532 16.40927124 C-68.13882216 14.17515489 -68.13498085 11.94114 -68.12939453 9.70703125 C-68.12859894 8.4331958 -68.12780334 7.15936035 -68.12698364 5.84692383 C-68 3 -68 3 -67 2 C-64.3337397 1.91144839 -61.69352886 1.88475327 -59.02734375 1.90234375 C-58.22970108 1.9037587 -57.43205841 1.90517365 -56.61024475 1.90663147 C-54.05262565 1.91224684 -51.49509282 1.92480188 -48.9375 1.9375 C-47.20768355 1.94251302 -45.47786574 1.94707627 -43.74804688 1.95117188 C-39.49866447 1.96222125 -35.24934688 1.97949614 -31 2 C-29.71553081 4.56893838 -29.67022856 6.76576337 -29.4375 9.625 C-29.35371094 10.62789062 -29.26992187 11.63078125 -29.18359375 12.6640625 C-29.12300781 13.43492188 -29.06242187 14.20578125 -29 15 C-28.5875 14.48050781 -28.175 13.96101563 -27.75 13.42578125 C-20.27852803 4.40331175 -12.13261342 -0.72795681 0 0 Z " fill="#60A8F5" transform="translate(153,22)"/>
<path d="M0 0 C0.77070328 -0.0033284 1.54140656 -0.0066568 2.33546448 -0.01008606 C3.96883546 -0.01515835 5.60221685 -0.01749429 7.2355957 -0.01733398 C9.73991924 -0.01951905 12.24380146 -0.0376672 14.74804688 -0.05664062 C16.33202974 -0.05957472 17.9160147 -0.06155941 19.5 -0.0625 C20.25212265 -0.06968552 21.0042453 -0.07687103 21.77915955 -0.08427429 C27.08758346 -0.06085404 27.08758346 -0.06085404 29.31640625 2.16796875 C29.51526749 5.14003869 29.58905266 8.01895906 29.57519531 10.9921875 C29.57869995 11.9061026 29.58220459 12.8200177 29.58581543 13.7616272 C29.59464274 16.7929842 29.58878006 19.82410923 29.58203125 22.85546875 C29.58337761 24.95532272 29.5853179 27.05517639 29.58782959 29.1550293 C29.59078221 33.56008873 29.58647876 37.96506716 29.57714844 42.37011719 C29.56575386 48.02650906 29.57231259 53.68271116 29.58429337 59.33909607 C29.59150823 63.67640624 29.58922575 68.01367116 29.58403778 72.35098267 C29.58270025 74.43706281 29.5843526 76.52314701 29.58899689 78.60922241 C29.59405598 81.52084289 29.58636057 84.43215275 29.57519531 87.34375 C29.57924377 88.21238678 29.58329224 89.08102356 29.58746338 89.97598267 C29.54493397 95.93944103 29.54493397 95.93944103 27.31640625 98.16796875 C24.67524512 98.35534524 22.14086645 98.42366741 19.5 98.3984375 C18.72834 98.39797928 17.95667999 98.39752106 17.16163635 98.39704895 C15.53002383 98.39402662 13.8984142 98.38614088 12.2668457 98.3737793 C9.76047625 98.35551662 7.25447592 98.35326963 4.74804688 98.35351562 C3.16536137 98.34860073 1.58267838 98.34277254 0 98.3359375 C-1.13122032 98.33426826 -1.13122032 98.33426826 -2.28529358 98.33256531 C-7.56754256 98.28401994 -7.56754256 98.28401994 -8.68359375 97.16796875 C-8.78420645 94.19035505 -8.81974268 91.23589708 -8.81298828 88.2578125 C-8.8147406 87.32292999 -8.81649292 86.38804749 -8.81829834 85.42483521 C-8.82271849 82.31836113 -8.81977829 79.21194346 -8.81640625 76.10546875 C-8.81707924 73.95694976 -8.81804923 71.80843084 -8.81930542 69.65991211 C-8.82078261 65.15054603 -8.81862714 60.64119972 -8.81396484 56.13183594 C-8.80826755 50.33748298 -8.81154644 44.54317633 -8.81753731 38.74882507 C-8.82114234 34.31033984 -8.8200046 29.87186568 -8.81740952 25.43338013 C-8.81674009 23.29623408 -8.81756922 21.15908704 -8.81988907 19.02194214 C-8.82241465 16.04064249 -8.81857634 13.05941895 -8.81298828 10.078125 C-8.81501251 9.18562042 -8.81703674 8.29311584 -8.81912231 7.37356567 C-8.79121323 -0.62049346 -7.35836394 0.01085804 0 0 Z " fill="#5FA8F4" transform="translate(429.68359375,-0.16796875)"/>
</svg>
